<svg xmlns="http://www.w3.org/2000/svg" width="48" height="48" viewBox="0 0 48 48">
  <defs>
    <filter id="logo-circle-a" color-interpolation-filters="auto">
      <feColorMatrix in="SourceGraphic" values="0 0 0 0 1.000000 0 0 0 0 1.000000 0 0 0 0 1.000000 0 0 0 1.000000 0"/>
    </filter>
  </defs>
  <g fill="none" fill-rule="evenodd">
    <circle cx="24" cy="24" r="24" fill="#6236FF"/>
    <g filter="url(#logo-circle-a)" transform="translate(8 8)">
      <path fill="#6236FF" d="M17.3295998,25.0851468 C18.1941922,26.3114297 18.5204819,27.4232929 18.3084687,28.4207363 C18.0964556,29.4181797 17.3461397,30.3012033 16.057521,31.0698071 C15.1929286,29.8435241 14.8666389,28.7316609 15.0786521,27.7342176 C15.2906652,26.7367742 16.0409811,25.8537506 17.3295998,25.0851468 Z M19.3738137,24.5374013 C20.8740922,24.5587224 21.9653966,24.9482853 22.647727,25.70609 C23.3300575,26.4638948 23.603414,27.5899413 23.4677964,29.0842297 C21.967518,29.0629087 20.8762136,28.6733458 20.1938831,27.915541 C19.5115527,27.1577363 19.2381962,26.0316897 19.3738137,24.5374013 Z M9.59907401,25.1902234 C11.266859,24.1480757 13.3635114,23.7922592 15.8890312,24.122774 C15.078981,26.5375843 13.8400634,28.2660634 12.1722783,29.3082111 C10.5044933,30.3503589 8.40784089,30.7061753 5.88232109,30.3756605 C6.69237134,27.9608502 7.93128898,26.2323712 9.59907401,25.1902234 Z M26.1211838,20.7631374 C28.0866018,20.8317714 30.0237755,21.7092193 31.9327048,23.3954812 C29.9107979,24.9444754 27.9171354,25.6846555 25.9517173,25.6160216 C23.9862993,25.5473877 22.0491256,24.6699397 20.1401963,22.9836778 C22.1621032,21.4346836 24.1557657,20.6945035 26.1211838,20.7631374 Z M0,16.6713548 C3.39218421,15.2715579 6.38914153,15.0195833 8.99087196,15.9154309 C11.5926024,16.8112786 13.7991059,18.8549484 15.6103826,22.0464406 C12.2181983,23.4462374 9.22124102,23.698212 6.61951059,22.8023644 C4.01778017,21.9065168 1.81127664,19.8628469 0,16.6713548 Z M30.1747914,8.5860438 C30.2019259,12.2555954 29.3128727,15.1287172 27.5076319,17.2054092 C25.7023911,19.2821012 22.9809626,20.5623634 19.3433464,21.0461959 C19.316212,17.3766443 20.2052651,14.5035225 22.010506,12.4268305 C23.8157468,10.3501385 26.5371753,9.06987626 30.1747914,8.5860438 Z M11.8821787,0.666666667 C15.7096133,3.19361934 18.0673944,6.11436447 18.9555221,9.42890205 C19.8436498,12.7434396 19.262124,16.4517697 17.2109447,20.5538922 C13.3835102,18.0269395 11.025729,15.1061944 10.1376014,11.7916568 C9.24947369,8.47711921 9.83099948,4.76878917 11.8821787,0.666666667 Z"/>
    </g>
  </g>
</svg>
