<svg xmlns="http://www.w3.org/2000/svg" width="500" height="500" viewBox="0 0 500 500">
  <path fill="#6236FF" fill-rule="evenodd" d="M270.774997,391.955418 C284.284254,411.11609 289.382529,428.488952 286.069824,444.074004 C282.757119,459.659057 271.033433,473.456301 250.898766,485.465735 C237.389509,466.305064 232.291233,448.932202 235.603939,433.347149 C238.916644,417.762097 250.64033,403.964853 270.774997,391.955418 Z M302.715839,383.396896 C326.15769,383.730037 343.209322,389.816958 353.870735,401.657657 C364.532148,413.498356 368.803343,431.092834 366.684319,454.44109 C343.242469,454.107948 326.190837,448.021028 315.529424,436.180328 C304.86801,424.339629 300.596816,406.745152 302.715839,383.396896 Z M149.985531,393.597241 C176.044672,377.313682 208.804866,371.75405 248.266113,376.918344 C235.609078,414.649755 216.25099,441.65724 190.191849,457.940799 C164.132708,474.224357 131.372514,479.78399 91.911267,474.619696 C104.568302,436.888284 123.92639,409.880799 149.985531,393.597241 Z M408.143496,324.424023 C438.853154,325.496427 469.121492,339.206551 498.948512,365.554394 C467.356217,389.757428 436.205241,401.322742 405.495583,400.250337 C374.785926,399.177932 344.517587,385.467808 314.690568,359.119965 C346.282863,334.916932 377.433839,323.351618 408.143496,324.424023 Z M0,260.489919 C53.0028784,238.618093 99.8303365,234.680989 140.482374,248.678608 C181.134412,262.676228 215.61103,294.608569 243.912227,344.475634 C190.909349,366.34746 144.081891,370.284563 103.429853,356.286944 C62.7778151,342.289325 28.3011974,310.356983 0,260.489919 Z M471.481116,134.156934 C471.905092,191.493678 458.013636,236.386206 429.806748,268.834518 C401.59986,301.282831 359.07754,321.286929 302.239788,328.846811 C301.815812,271.510068 315.707268,226.61754 343.914156,194.169227 C372.121044,161.720914 414.643364,141.716817 471.481116,134.156934 Z M185.659043,10.4166667 C245.462708,49.9003021 282.303038,95.5369448 296.180033,147.326595 C310.057028,199.116244 300.970687,257.058901 268.921012,321.154565 C209.117346,281.67093 172.277016,236.034287 158.400021,184.244637 C144.523026,132.454988 153.609367,74.5123307 185.659043,10.4166667 Z"/>
</svg>
