<svg xmlns="http://www.w3.org/2000/svg" width="98" height="16" viewBox="0 0 98 16">
  <path fill="#0D0E10" d="M59.28 15.26C61.54 15.26 63.3 13.98 63.3 11.94 63.3 8.2 58.34 9 58.34 7.34 58.34 6.82 58.78 6.5 59.42 6.5 60.4 6.5 60.98 7.1 61.3 7.5L63.12 6.14C62.62 5.32 61.52 4.28 59.54 4.28 57.4 4.28 55.74 5.44 55.74 7.38 55.74 11.1 60.68 10.48 60.68 12.08 60.68 12.68 60.18 13.02 59.4 13.02 58.22 13.02 57.52 12.48 57 11.88L55.38 13.32C55.94 14.22 57.22 15.26 59.28 15.26zM69.28 15.26C70.8 15.26 71.94 14.62 72.54 14.14L71.8 11.88C71.34 12.26 70.5 12.82 69.44 12.82 67.7 12.82 66.46 11.56 66.46 9.78 66.46 8.1 67.56 6.72 69.34 6.72 70.52 6.72 71.32 7.3 71.78 7.72L72.56 5.4C71.88 4.88 70.8 4.28 69.26 4.28 66.08 4.28 63.7 6.62 63.7 9.8 63.7 12.98 66.02 15.26 69.28 15.26zM76.9 15.26C78.1 15.26 78.9 14.9 79.44 14.32L79.62 15 82.06 15 82.06 8.38C82.06 6.04 81.06 4.28 77.7 4.28 76.1 4.28 74.52 4.88 73.58 5.52L74.62 7.4C75.4 7 76.36 6.66 77.4 6.66 78.62 6.66 79.3 7.28 79.3 8.2L79.3 8.88C78.92 8.62 78.1 8.3 77.04 8.3 74.6 8.3 72.98 9.7 72.98 11.76 72.98 13.96 74.78 15.26 76.9 15.26zM77.56 13.12C76.52 13.12 75.74 12.54 75.74 11.68 75.74 10.82 76.48 10.22 77.54 10.22 78.6 10.22 79.36 10.76 79.36 11.68 79.36 12.56 78.6 13.12 77.56 13.12zM86.36 15L86.36.54 83.6.54 83.6 15 86.36 15zM92.98 15.26C95.58 15.26 96.98 13.7 97.38 12.96L95.56 11.58C95.26 12.02 94.44 12.86 93.02 12.86 91.48 12.86 90.36 11.86 90.3 10.46L97.66 10.46C97.68 10.26 97.68 10.06 97.68 9.86 97.68 6.44 95.84 4.28 92.6 4.28 89.62 4.28 87.48 6.64 87.48 9.8 87.48 12.94 89.62 15.26 92.98 15.26zM94.88 8.66L90.38 8.66C90.5 7.46 91.34 6.54 92.64 6.54 93.9 6.54 94.82 7.38 94.88 8.66zM6.84 15L8.34 9.06 9.84 15 13.6 15 16.54 4.5 12.9 4.5 11.48 11.36 9.9 4.5 6.78 4.5 5.2 11.36 3.78 4.5.14 4.5 3.08 15 6.84 15zM20.48 15L20.48 8.74C20.48 7.9 21.04 7.24 21.96 7.24 22.76 7.24 23.34 7.76 23.34 8.74L23.34 15 26.68 15 26.68 9.18C26.68 7.04 26.36 4.24 23.08 4.24 21.76 4.24 20.88 4.96 20.48 5.58L20.48.54 17.14.54 17.14 15 20.48 15zM33.18 15.26C36.5 15.26 38.94 12.9 38.94 9.74 38.94 6.56 36.56 4.24 33.18 4.24 29.94 4.24 27.48 6.6 27.48 9.78 27.48 12.94 29.84 15.26 33.18 15.26zM33.18 12.32C31.82 12.32 30.82 11.3 30.82 9.78 30.82 8.24 31.8 7.18 33.18 7.18 34.54 7.18 35.6 8.2 35.6 9.74 35.6 11.24 34.56 12.32 33.18 12.32zM43.16 15L43.16.54 39.82.54 39.82 15 43.16 15zM49.64 15.26C52.36 15.26 53.8 13.56 54.1 12.94L51.9 11.24C51.7 11.54 50.96 12.36 49.7 12.36 48.46 12.36 47.56 11.56 47.48 10.62L54.36 10.62C54.38 10.38 54.38 10.16 54.38 9.96 54.38 6.38 52.56 4.24 49.22 4.24 46.14 4.24 44.06 6.7 44.06 9.78 44.06 12.88 46.18 15.26 49.64 15.26zM50.98 8.5L47.58 8.5C47.66 7.76 48.18 6.94 49.28 6.94 50.32 6.94 50.94 7.66 50.98 8.5z"/>
</svg>
