<svg xmlns="http://www.w3.org/2000/svg" width="134" height="32" viewBox="0 0 134 32" style="background:#6236ff">
  <defs>
    <filter id="logo-wide-on-color-a" color-interpolation-filters="auto">
      <feColorMatrix in="SourceGraphic" values="0 0 0 0 0.227451 0 0 0 0 0.125490 0 0 0 0 0.600000 0 0 0 1.000000 0"/>
    </filter>
  </defs>
  <g fill="none" fill-rule="evenodd">
    <rect width="134" height="32" fill="#6236FF"/>
    <path fill="#FFF" fill-rule="nonzero" d="M59.28 15.26C61.54 15.26 63.3 13.98 63.3 11.94 63.3 8.2 58.34 9 58.34 7.34 58.34 6.82 58.78 6.5 59.42 6.5 60.4 6.5 60.98 7.1 61.3 7.5L63.12 6.14C62.62 5.32 61.52 4.28 59.54 4.28 57.4 4.28 55.74 5.44 55.74 7.38 55.74 11.1 60.68 10.48 60.68 12.08 60.68 12.68 60.18 13.02 59.4 13.02 58.22 13.02 57.52 12.48 57 11.88L55.38 13.32C55.94 14.22 57.22 15.26 59.28 15.26zM69.28 15.26C70.8 15.26 71.94 14.62 72.54 14.14L71.8 11.88C71.34 12.26 70.5 12.82 69.44 12.82 67.7 12.82 66.46 11.56 66.46 9.78 66.46 8.1 67.56 6.72 69.34 6.72 70.52 6.72 71.32 7.3 71.78 7.72L72.56 5.4C71.88 4.88 70.8 4.28 69.26 4.28 66.08 4.28 63.7 6.62 63.7 9.8 63.7 12.98 66.02 15.26 69.28 15.26zM76.9 15.26C78.1 15.26 78.9 14.9 79.44 14.32L79.62 15 82.06 15 82.06 8.38C82.06 6.04 81.06 4.28 77.7 4.28 76.1 4.28 74.52 4.88 73.58 5.52L74.62 7.4C75.4 7 76.36 6.66 77.4 6.66 78.62 6.66 79.3 7.28 79.3 8.2L79.3 8.88C78.92 8.62 78.1 8.3 77.04 8.3 74.6 8.3 72.98 9.7 72.98 11.76 72.98 13.96 74.78 15.26 76.9 15.26zM77.56 13.12C76.52 13.12 75.74 12.54 75.74 11.68 75.74 10.82 76.48 10.22 77.54 10.22 78.6 10.22 79.36 10.76 79.36 11.68 79.36 12.56 78.6 13.12 77.56 13.12zM86.36 15L86.36.54 83.6.54 83.6 15 86.36 15zM92.98 15.26C95.58 15.26 96.98 13.7 97.38 12.96L95.56 11.58C95.26 12.02 94.44 12.86 93.02 12.86 91.48 12.86 90.36 11.86 90.3 10.46L97.66 10.46C97.68 10.26 97.68 10.06 97.68 9.86 97.68 6.44 95.84 4.28 92.6 4.28 89.62 4.28 87.48 6.64 87.48 9.8 87.48 12.94 89.62 15.26 92.98 15.26zM94.88 8.66L90.38 8.66C90.5 7.46 91.34 6.54 92.64 6.54 93.9 6.54 94.82 7.38 94.88 8.66zM6.84 15L8.34 9.06 9.84 15 13.6 15 16.54 4.5 12.9 4.5 11.48 11.36 9.9 4.5 6.78 4.5 5.2 11.36 3.78 4.5.14 4.5 3.08 15 6.84 15zM20.48 15L20.48 8.74C20.48 7.9 21.04 7.24 21.96 7.24 22.76 7.24 23.34 7.76 23.34 8.74L23.34 15 26.68 15 26.68 9.18C26.68 7.04 26.36 4.24 23.08 4.24 21.76 4.24 20.88 4.96 20.48 5.58L20.48.54 17.14.54 17.14 15 20.48 15zM33.18 15.26C36.5 15.26 38.94 12.9 38.94 9.74 38.94 6.56 36.56 4.24 33.18 4.24 29.94 4.24 27.48 6.6 27.48 9.78 27.48 12.94 29.84 15.26 33.18 15.26zM33.18 12.32C31.82 12.32 30.82 11.3 30.82 9.78 30.82 8.24 31.8 7.18 33.18 7.18 34.54 7.18 35.6 8.2 35.6 9.74 35.6 11.24 34.56 12.32 33.18 12.32zM43.16 15L43.16.54 39.82.54 39.82 15 43.16 15zM49.64 15.26C52.36 15.26 53.8 13.56 54.1 12.94L51.9 11.24C51.7 11.54 50.96 12.36 49.7 12.36 48.46 12.36 47.56 11.56 47.48 10.62L54.36 10.62C54.38 10.38 54.38 10.16 54.38 9.96 54.38 6.38 52.56 4.24 49.22 4.24 46.14 4.24 44.06 6.7 44.06 9.78 44.06 12.88 46.18 15.26 49.64 15.26zM50.98 8.5L47.58 8.5C47.66 7.76 48.18 6.94 49.28 6.94 50.32 6.94 50.94 7.66 50.98 8.5z" transform="translate(36 8)"/>
    <g filter="url(#logo-wide-on-color-a)">
      <path fill="#6236FF" d="M17.3295998,25.0851468 C18.1941922,26.3114297 18.5204819,27.4232929 18.3084687,28.4207363 C18.0964556,29.4181797 17.3461397,30.3012033 16.057521,31.0698071 C15.1929286,29.8435241 14.8666389,28.7316609 15.0786521,27.7342176 C15.2906652,26.7367742 16.0409811,25.8537506 17.3295998,25.0851468 Z M19.3738137,24.5374013 C20.8740922,24.5587224 21.9653966,24.9482853 22.647727,25.70609 C23.3300575,26.4638948 23.603414,27.5899413 23.4677964,29.0842297 C21.967518,29.0629087 20.8762136,28.6733458 20.1938831,27.915541 C19.5115527,27.1577363 19.2381962,26.0316897 19.3738137,24.5374013 Z M9.59907401,25.1902234 C11.266859,24.1480757 13.3635114,23.7922592 15.8890312,24.122774 C15.078981,26.5375843 13.8400634,28.2660634 12.1722783,29.3082111 C10.5044933,30.3503589 8.40784089,30.7061753 5.88232109,30.3756605 C6.69237134,27.9608502 7.93128898,26.2323712 9.59907401,25.1902234 Z M26.1211838,20.7631374 C28.0866018,20.8317714 30.0237755,21.7092193 31.9327048,23.3954812 C29.9107979,24.9444754 27.9171354,25.6846555 25.9517173,25.6160216 C23.9862993,25.5473877 22.0491256,24.6699397 20.1401963,22.9836778 C22.1621032,21.4346836 24.1557657,20.6945035 26.1211838,20.7631374 Z M0,16.6713548 C3.39218421,15.2715579 6.38914153,15.0195833 8.99087196,15.9154309 C11.5926024,16.8112786 13.7991059,18.8549484 15.6103826,22.0464406 C12.2181983,23.4462374 9.22124102,23.698212 6.61951059,22.8023644 C4.01778017,21.9065168 1.81127664,19.8628469 0,16.6713548 Z M30.1747914,8.5860438 C30.2019259,12.2555954 29.3128727,15.1287172 27.5076319,17.2054092 C25.7023911,19.2821012 22.9809626,20.5623634 19.3433464,21.0461959 C19.316212,17.3766443 20.2052651,14.5035225 22.010506,12.4268305 C23.8157468,10.3501385 26.5371753,9.06987626 30.1747914,8.5860438 Z M11.8821787,0.666666667 C15.7096133,3.19361934 18.0673944,6.11436447 18.9555221,9.42890205 C19.8436498,12.7434396 19.262124,16.4517697 17.2109447,20.5538922 C13.3835102,18.0269395 11.025729,15.1061944 10.1376014,11.7916568 C9.24947369,8.47711921 9.83099948,4.76878917 11.8821787,0.666666667 Z"/>
    </g>
  </g>
</svg>
